<svg xmlns="http://www.w3.org/2000/svg">
  <symbol id="calendar" viewBox="0 0 16 16">
    <path
      d="M14.857,16H1.143C0.512,16,0,15.487,0,14.857v-12c0-0.631,0.512-1.143,1.143-1.143h1.143v0.571C2.286,3.233,3.053,4,4,4 s1.714-0.767,1.714-1.714V1.714h4.572v0.571C10.286,3.233,11.054,4,12,4s1.714-0.767,1.714-1.714V1.714h1.144 c0.63,0,1.143,0.512,1.143,1.143v12C16,15.487,15.487,16,14.857,16z M14.857,5.714H1.143v9.143h13.714V5.714z M11.982,3.429 c-0.622,0-1.125-0.503-1.125-1.125V1.125C10.857,0.503,11.36,0,11.982,0c0.621,0,1.125,0.503,1.125,1.125v1.179 C13.107,2.925,12.604,3.429,11.982,3.429z M3.982,3.429c-0.622,0-1.125-0.503-1.125-1.125V1.125C2.857,0.503,3.36,0,3.982,0 c0.622,0,1.125,0.503,1.125,1.125v1.179C5.107,2.925,4.604,3.429,3.982,3.429z"
      fill="currentColor"/>
  </symbol>
  <symbol id="video" viewBox="0 0 16 16">
    <path
      d="M15.838,4.799L15.836,4.8c0,0-0.154-1.103-0.637-1.587c-0.607-0.637-1.291-0.641-1.602-0.678C11.359,2.372,8,2.372,8,2.372 H7.994c0,0-3.359,0-5.597,0.163C2.083,2.573,1.403,2.576,0.793,3.213C0.312,3.697,0.16,4.8,0.16,4.8S0,6.094,0,7.391v1.212 c0,1.295,0.159,2.592,0.159,2.592s0.156,1.103,0.634,1.588c0.609,0.637,1.409,0.615,1.766,0.684C3.841,13.589,8,13.626,8,13.626 s3.363-0.006,5.601-0.166c0.312-0.037,0.994-0.041,1.602-0.678c0.482-0.484,0.639-1.589,0.639-1.589S16,9.9,16,8.604V7.39 C15.996,6.096,15.838,4.799,15.838,4.799z M15,8.532c0,1.134-0.137,2.265-0.137,2.265s-0.137,0.965-0.561,1.389 c-0.529,0.557-1.128,0.561-1.401,0.594C10.943,12.92,8,12.924,8,12.924s-3.64-0.031-4.761-0.137 c-0.311-0.062-1.012-0.041-1.545-0.598c-0.418-0.428-0.555-1.393-0.555-1.393S1,9.664,1,8.532V7.468 c0-1.135,0.139-2.266,0.139-2.266s0.135-0.966,0.555-1.39C2.227,3.256,2.822,3.252,3.097,3.22c1.959-0.144,4.898-0.144,4.898-0.144 H8c0,0,2.939,0,4.898,0.144c0.273,0.032,0.871,0.036,1.4,0.593c0.421,0.424,0.558,1.39,0.558,1.39V5.201c0,0,0.14,1.135,0.144,2.268 V8.532z"
      fill="currentColor"/>
    <path
      d="M6.343 5.578v4.497l4.32-2.24"
      fill="currentColor"/>
  </symbol>
  <symbol id="twitter" viewBox="0 0 16 16">
    <path
      d="M16 3.54c-.588.262-1.223.437-1.884.515.678-.406 1.196-1.05 1.444-1.816-.635.374-1.338.65-2.083.796-.6-.638-1.453-1.034-2.397-1.034-1.812 0-3.28 1.47-3.28 3.28 0 .256.028.506.084.747C5.156 5.89 2.738 4.585 1.12 2.6.84 3.083.676 3.65.676 4.25c0 1.137.578 2.143 1.458 2.73-.538-.017-1.044-.167-1.487-.41v.04c0 1.592 1.13 2.92 2.633 3.22-.275.074-.566.115-.865.115-.212 0-.416-.02-.62-.06.42 1.303 1.63 2.254 3.066 2.28-1.124.882-2.537 1.407-4.076 1.407-.266 0-.525-.016-.784-.047C1.456 14.46 3.18 15 5.032 15c6.035 0 9.34-5 9.34-9.338 0-.144-.004-.284-.01-.425C15 4.777 15.558 4.2 16 3.54z"
      fill="currentColor"/>
  </symbol>
  <symbol id="people" viewBox="0 0 16 16">
    <path
      d="M10.706,11.939c-0.229-0.051-0.428-0.093-0.523-0.135c-0.729-0.316-1.177-0.799-1.336-1.435 c0.676-0.581,1.243-1.479,1.566-2.482c0.345-0.447,0.532-0.907,0.532-1.301c0-0.262-0.084-0.48-0.252-0.651 c-0.094-2.194-1.659-3.923-3.604-3.951L7.031,1.983c-1.909,0.011-3.482,1.693-3.62,3.851c-0.245,0.181-0.37,0.433-0.37,0.754 c0,0.463,0.262,1.018,0.72,1.526c0.317,0.87,0.809,1.635,1.394,2.17c-0.158,0.641-0.607,1.123-1.337,1.44 c-0.094,0.041-0.283,0.086-0.5,0.139C2.322,12.1,0.471,12.54,0.006,14.271c-0.028,0.104,0.035,0.211,0.139,0.239l13.657,0.007 c0.018,0,0.034-0.002,0.052-0.007c0.105-0.028,0.167-0.135,0.138-0.24C13.533,12.552,11.693,12.152,10.706,11.939z M0.458,14.145 c0.5-1.318,2.021-1.681,2.95-1.902c0.246-0.058,0.44-0.104,0.565-0.158c1.117-0.484,1.48-1.265,1.589-1.833 c0.013-0.068-0.012-0.139-0.064-0.186c-0.582-0.502-1.072-1.255-1.381-2.12C4.109,7.919,4.095,7.896,4.077,7.877 c-0.409-0.444-0.644-0.915-0.644-1.29c0-0.219,0.083-0.366,0.269-0.477c0.057-0.034,0.093-0.095,0.095-0.16 c0.087-1.995,1.508-3.565,3.251-3.576c0.001,0,0.04,0.003,0.042,0.003c1.752,0.024,3.164,1.629,3.214,3.652 c0.002,0.057,0.027,0.108,0.069,0.145c0.124,0.104,0.181,0.235,0.181,0.414c0,0.313-0.167,0.699-0.471,1.085 c-0.015,0.02-0.024,0.04-0.032,0.062c-0.313,0.994-0.876,1.871-1.542,2.408c-0.057,0.045-0.083,0.117-0.07,0.188 c0.109,0.567,0.473,1.348,1.589,1.832c0.132,0.058,0.337,0.103,0.596,0.158c0.919,0.198,2.42,0.524,2.918,1.817 C13.547,14.16,0.451,14.164,0.458,14.145z"
      fill="currentColor"/>
    <path
      d="M12.707,11.439c-0.229-0.051-0.428-0.093-0.523-0.135c-0.729-0.316-1.177-0.799-1.337-1.435 c0.677-0.581,1.243-1.479,1.566-2.482c0.345-0.447,0.532-0.907,0.532-1.301c0-0.262-0.084-0.48-0.252-0.651 C12.6,3.241,11.034,1.513,9.09,1.484L9.032,1.483C8.649,1.485,8.285,1.567,7.94,1.699c0.218,0.055,0.43,0.129,0.631,0.227 c0.155-0.031,0.313-0.051,0.477-0.052c0.002,0,0.04,0.003,0.042,0.003c1.752,0.024,3.164,1.629,3.214,3.652 c0.002,0.057,0.027,0.108,0.069,0.145c0.124,0.104,0.181,0.235,0.181,0.414c0,0.313-0.167,0.699-0.471,1.085 c-0.015,0.02-0.024,0.04-0.032,0.062c-0.313,0.994-0.876,1.871-1.542,2.408c-0.058,0.045-0.084,0.117-0.07,0.188 c0.108,0.567,0.473,1.348,1.589,1.832c0.132,0.058,0.337,0.103,0.596,0.158c0.919,0.198,2.42,0.524,2.918,1.817 c0.001,0.004-0.528,0.008-1.368,0.01c0.062,0.111,0.107,0.24,0.156,0.366l1.475,0.001c0.018,0,0.034-0.002,0.052-0.007 c0.105-0.028,0.167-0.135,0.138-0.24C15.534,12.052,13.694,11.652,12.707,11.439z"
      fill="currentColor"/>
  </symbol>
  <symbol id="globe" viewBox="0 0 16 16">
    <path
      d="M15.997 8c0-4.34-3.478-7.882-7.79-7.992-.005 0-.01-.005-.01-.005v.005C8.134.008 8.07 0 8.002 0c-4.412 0-8 3.588-8 8 0 4.232 3.31 7.7 7.473 7.974.005.004.013.004.018.007l.003-.006c.17.006.34.026.51.026.17 0 .336-.02.508-.026v.004s.005 0 .005-.004c4.163-.267 7.477-3.742 7.477-7.975zM12.7 7.88c-.018-1.21-.232-2.367-.598-3.413.587-.35 1.128-.78 1.613-1.277 1.07 1.272 1.724 2.91 1.756 4.694H12.7V7.88zm-.52 0H8.26V5.594c1.185-.04 2.346-.348 3.39-.88.324.973.52 2.045.533 3.164zM8.26 5.077V.598c1.387.614 2.522 1.934 3.203 3.63-.98.516-2.075.81-3.202.85zm-.522 0c-1.127-.04-2.22-.334-3.203-.85C5.22 2.535 6.348 1.215 7.736.6V5.08zm0 .52v2.286H3.812c.018-1.12.21-2.192.538-3.16 1.047.528 2.2.832 3.386.874zm-4.44 2.28H.523c.03-1.783.683-3.416 1.755-4.693.486.5 1.028.928 1.613 1.282-.366 1.05-.58 2.203-.598 3.412zM3.3 8.4c.034 1.113.227 2.183.554 3.155-.57.345-1.1.77-1.575 1.258C1.26 11.608.626 10.073.535 8.4H3.3zm.516 0h3.92v2.003c-1.204.038-2.37.35-3.424.898-.29-.897-.46-1.876-.496-2.9zm3.92 2.524v4.545c-.042 0-.084-.004-.127-.01-1.368-.66-2.46-1.98-3.12-3.67.997-.524 2.106-.827 3.246-.866zm.522 0c1.048.045 2.173.38 3.216.935-.662 1.65-1.747 2.954-3.1 3.6-.04 0-.078.007-.122.007v-4.542h.006zm0-.526V8.4h3.922c-.036 1.045-.215 2.05-.52 2.96-1.01-.53-2.17-.914-3.402-.962zM12.695 8.4h2.757c-.088 1.674-.724 3.208-1.74 4.416-.442-.414-.983-.83-1.597-1.195.346-.995.548-2.085.58-3.22zm.675-5.594c-.434.453-.93.84-1.45 1.166-.582-1.4-1.453-2.562-2.516-3.318 1.535.294 2.91 1.063 3.966 2.152zM6.61.653C5.54 1.41 4.665 2.57 4.084 3.973c-.53-.327-1.016-.72-1.456-1.172C3.68 1.718 5.06.95 6.61.654zM2.63 13.198c.426-.443.9-.822 1.413-1.142.538 1.34 1.34 2.467 2.336 3.24-1.457-.322-2.752-1.07-3.75-2.098zm6.983 2.105c.98-.763 1.776-1.867 2.313-3.184.512.31.997.674 1.43 1.084-1 1.03-2.293 1.773-3.743 2.1z"
      fill="currentColor"/>
  </symbol>
  <symbol id="code" viewBox="0 0 16 16">
    <path
      d="M5 11.838l-.437.438c-.058.058-.125.087-.2.087s-.144-.03-.202-.087L.088 8.2C.03 8.144 0 8.076 0 8c0-.076.03-.143.087-.2L4.16 3.723c.06-.058.127-.087.203-.087s.143.03.2.087L5 4.162c.06.058.088.125.088.2s-.03.143-.088.2L1.564 8 5 11.437c.058.058.087.125.087.2 0 .076-.028.143-.087.2zm5.168-9.33l-3.262 11.29c-.023.074-.068.13-.135.17-.066.038-.134.045-.204.02l-.542-.147c-.076-.023-.133-.068-.17-.135-.038-.066-.045-.14-.022-.214l3.26-11.288c.024-.076.07-.132.136-.17.067-.038.135-.046.206-.022l.542.15c.075.022.132.067.17.135.04.066.045.137.022.213zM15.912 8.2l-4.074 4.076c-.058.058-.125.087-.2.087-.076 0-.143-.03-.2-.087L11 11.838c-.06-.058-.088-.125-.088-.2 0-.076.03-.144.088-.2L14.436 8 11 4.563c-.06-.058-.088-.125-.088-.2s.03-.143.088-.2l.437-.44c.06-.057.125-.086.2-.086.076 0 .144.03.2.087L15.913 7.8c.06.057.088.124.088.2 0 .075-.03.143-.088.2z"
      fill="currentColor"/>
  </symbol>
  <symbol id="document" viewBox="0 0 16 16">
    <path
      d="M9.777 0h.297l3.555 4.148V14.82c0 .647-.53 1.18-1.185 1.18h-8.89c-.657 0-1.185-.532-1.185-1.19V1.19C2.37.533 2.902 0 3.558 0h6.22zM9.48.593H3.553c-.326 0-.59.27-.59.59v13.634c0 .326.27.59.592.59h8.888c.328 0 .594-.264.594-.59V4.74h-2.37c-.655 0-1.187-.526-1.187-1.19V.594zm.594.296v2.66c0 .33.268.598.59.598h2.195L10.073.888zM4.148 4.147v.593h4.148V4.15H4.148zm0-1.777v.593h4.148V2.37H4.148zm0 3.556v.593h7.704v-.594H4.148zm0 1.778v.593h7.704v-.593H4.148zm0 1.777v.594h7.704V9.48H4.148zm0 1.78v.592h7.704v-.593H4.148zm0 1.777v.593h7.704v-.593H4.148z"
      fill="currentColor"/>
  </symbol>
  <symbol id="presentation" viewBox="0 0 16 16">
    <path
      d="M16,1.067H8.266V0.267C8.266,0.119,8.147,0,8,0C7.852,0,7.733,0.119,7.733,0.267v0.801H0v11.2 h7.355l-3.278,3.276c-0.104,0.104-0.104,0.273,0,0.378C4.13,15.974,4.198,16,4.266,16c0.068,0,0.137-0.026,0.188-0.078 l3.278-3.278v2.556c0,0.146,0.119,0.267,0.267,0.267c0.147,0,0.266-0.12,0.266-0.267v-2.556l3.279,3.278 C11.596,15.974,11.664,16,11.732,16s0.137-0.026,0.188-0.078c0.104-0.104,0.104-0.273,0-0.378l-3.276-3.276H16V1.067L16,1.067z M0.533,1.6h14.933v10.133H0.533V1.6z"
      fill="currentColor"/>
    <circle cx="2.5" cy="10" r="1" fill="currentColor"/>
    <circle cx="10" cy="7.724" r="1" fill="currentColor"/>
    <circle cx="6" cy="6" r="1" fill="currentColor"/>
    <circle cx="13.5" cy="4" r="1" fill="currentColor"/>
    <polygon points="2.782,10.247 2.218,9.753 5.901,5.543 9.907,7.357 13.224,3.747 13.776,4.253 10.093,8.265 6.099,6.457" fill="currentColor"/>
  </symbol>
  <symbol id="github" viewBox="0 0 16 16">
    <path
      d="M8 .198c-4.418 0-8 3.582-8 8 0 3.534 2.292 6.532 5.47 7.59.4.075.548-.173.548-.384 0-.19-.008-.82-.01-1.49-2.227.484-2.696-.943-2.696-.943-.364-.925-.888-1.17-.888-1.17-.725-.497.055-.485.055-.485.802.056 1.225.824 1.225.824.714 1.22 1.872.867 2.328.663.072-.517.28-.87.508-1.07-1.776-.2-3.644-.888-3.644-3.954 0-.874.313-1.588.824-2.148-.082-.202-.357-1.015.077-2.116 0 0 .672-.216 2.2.82.64-.177 1.323-.267 2.003-.27.68.003 1.365.093 2.004.27 1.527-1.036 2.197-.82 2.197-.82.437 1.102.164 1.916.08 2.116.514.56.823 1.274.823 2.147 0 3.072-1.872 3.748-3.652 3.947.288.248.543.734.543 1.48 0 1.07-.01 1.93-.01 2.195 0 .213.146.462.552.384C13.71 14.726 16 11.73 16 8.196c0-4.418-3.58-8-8-8v.002z"
      fill="currentColor"/>
  </symbol>
</svg>
